<svg width="1177" height="40" viewBox="0 0 1177 40" fill="none" xmlns="http://www.w3.org/2000/svg">
<path d="M268.848 20.48C269.291 20.48 269.68 20.4213 270.016 20.304C270.357 20.1867 270.643 20.024 270.872 19.816C271.107 19.6027 271.283 19.3493 271.4 19.056C271.517 18.7627 271.576 18.44 271.576 18.088C271.576 17.3573 271.349 16.7867 270.896 16.376C270.448 15.9653 269.765 15.76 268.848 15.76H267.008V20.48H268.848ZM268.848 14.536C269.573 14.536 270.203 14.6213 270.736 14.792C271.275 14.9573 271.72 15.1947 272.072 15.504C272.424 15.8133 272.685 16.1867 272.856 16.624C273.032 17.0613 273.12 17.5493 273.12 18.088C273.12 18.6213 273.027 19.1093 272.84 19.552C272.653 19.9947 272.379 20.376 272.016 20.696C271.659 21.016 271.213 21.2667 270.68 21.448C270.152 21.624 269.541 21.712 268.848 21.712H267.008V26H265.464V14.536H268.848ZM278.879 22.352C278.223 22.3733 277.663 22.4267 277.199 22.512C276.741 22.592 276.365 22.6987 276.071 22.832C275.783 22.9653 275.573 23.1227 275.439 23.304C275.311 23.4853 275.247 23.688 275.247 23.912C275.247 24.1253 275.282 24.3093 275.351 24.464C275.421 24.6187 275.514 24.7467 275.631 24.848C275.754 24.944 275.895 25.016 276.055 25.064C276.221 25.1067 276.397 25.128 276.583 25.128C276.834 25.128 277.063 25.104 277.271 25.056C277.479 25.0027 277.674 24.928 277.855 24.832C278.042 24.736 278.218 24.6213 278.383 24.488C278.554 24.3547 278.719 24.2027 278.879 24.032V22.352ZM274.279 19.04C274.727 18.608 275.21 18.2853 275.727 18.072C276.245 17.8587 276.818 17.752 277.447 17.752C277.901 17.752 278.303 17.8267 278.655 17.976C279.007 18.1253 279.303 18.3333 279.543 18.6C279.783 18.8667 279.965 19.1893 280.087 19.568C280.21 19.9467 280.271 20.3627 280.271 20.816V26H279.639C279.501 26 279.394 25.9787 279.319 25.936C279.245 25.888 279.186 25.7973 279.143 25.664L278.983 24.896C278.77 25.0933 278.562 25.2693 278.359 25.424C278.157 25.5733 277.943 25.7013 277.719 25.808C277.495 25.9093 277.255 25.9867 276.999 26.04C276.749 26.0987 276.469 26.128 276.159 26.128C275.845 26.128 275.549 26.0853 275.271 26C274.994 25.9093 274.751 25.776 274.543 25.6C274.341 25.424 274.178 25.2027 274.055 24.936C273.938 24.664 273.879 24.344 273.879 23.976C273.879 23.656 273.967 23.3493 274.143 23.056C274.319 22.7573 274.605 22.4933 274.999 22.264C275.394 22.0347 275.909 21.848 276.543 21.704C277.178 21.5547 277.957 21.4693 278.879 21.448V20.816C278.879 20.1867 278.743 19.712 278.471 19.392C278.199 19.0667 277.802 18.904 277.279 18.904C276.927 18.904 276.631 18.9493 276.391 19.04C276.157 19.1253 275.951 19.224 275.775 19.336C275.605 19.4427 275.455 19.5413 275.327 19.632C275.205 19.7173 275.082 19.76 274.959 19.76C274.863 19.76 274.781 19.736 274.711 19.688C274.642 19.6347 274.583 19.5707 274.535 19.496L274.279 19.04ZM285.265 22.04C285.553 22.04 285.806 22 286.025 21.92C286.243 21.84 286.427 21.728 286.577 21.584C286.726 21.44 286.838 21.2693 286.913 21.072C286.987 20.8693 287.025 20.648 287.025 20.408C287.025 19.912 286.873 19.5173 286.569 19.224C286.27 18.9307 285.835 18.784 285.265 18.784C284.689 18.784 284.249 18.9307 283.945 19.224C283.646 19.5173 283.497 19.912 283.497 20.408C283.497 20.648 283.534 20.8693 283.609 21.072C283.689 21.2693 283.803 21.44 283.953 21.584C284.102 21.728 284.286 21.84 284.505 21.92C284.723 22 284.977 22.04 285.265 22.04ZM287.833 26.44C287.833 26.2427 287.777 26.0827 287.665 25.96C287.553 25.8373 287.401 25.7413 287.209 25.672C287.022 25.6027 286.803 25.5547 286.553 25.528C286.302 25.496 286.035 25.472 285.753 25.456C285.475 25.44 285.193 25.424 284.905 25.408C284.617 25.392 284.339 25.3653 284.073 25.328C283.774 25.4667 283.529 25.6427 283.337 25.856C283.15 26.064 283.057 26.3093 283.057 26.592C283.057 26.7733 283.102 26.9413 283.193 27.096C283.289 27.256 283.433 27.392 283.625 27.504C283.817 27.6213 284.057 27.712 284.345 27.776C284.638 27.8453 284.982 27.88 285.377 27.88C285.761 27.88 286.105 27.8453 286.409 27.776C286.713 27.7067 286.969 27.608 287.177 27.48C287.39 27.352 287.553 27.2 287.665 27.024C287.777 26.848 287.833 26.6533 287.833 26.44ZM289.281 18.216V18.744C289.281 18.92 289.169 19.032 288.945 19.08L288.025 19.2C288.206 19.552 288.297 19.9413 288.297 20.368C288.297 20.7627 288.219 21.1227 288.065 21.448C287.915 21.768 287.707 22.0427 287.441 22.272C287.174 22.5013 286.854 22.6773 286.481 22.8C286.107 22.9227 285.702 22.984 285.265 22.984C284.886 22.984 284.529 22.9387 284.193 22.848C284.022 22.9547 283.891 23.0693 283.801 23.192C283.71 23.3093 283.664 23.4293 283.664 23.552C283.664 23.744 283.742 23.8907 283.897 23.992C284.057 24.088 284.265 24.1573 284.521 24.2C284.777 24.2427 285.067 24.2693 285.393 24.28C285.723 24.2907 286.059 24.3093 286.401 24.336C286.747 24.3573 287.083 24.3973 287.409 24.456C287.739 24.5147 288.033 24.6107 288.289 24.744C288.545 24.8773 288.75 25.0613 288.905 25.296C289.065 25.5307 289.145 25.8347 289.145 26.208C289.145 26.5547 289.057 26.8907 288.881 27.216C288.71 27.5413 288.462 27.8293 288.137 28.08C287.811 28.336 287.411 28.5387 286.937 28.688C286.467 28.8427 285.937 28.92 285.345 28.92C284.753 28.92 284.235 28.8613 283.793 28.744C283.35 28.6267 282.982 28.4693 282.689 28.272C282.395 28.0747 282.174 27.8453 282.025 27.584C281.881 27.328 281.809 27.0587 281.809 26.776C281.809 26.376 281.934 26.0373 282.185 25.76C282.435 25.4827 282.779 25.2613 283.217 25.096C282.977 24.9893 282.785 24.848 282.641 24.672C282.502 24.4907 282.433 24.248 282.433 23.944C282.433 23.8267 282.454 23.7067 282.497 23.584C282.539 23.456 282.603 23.3307 282.689 23.208C282.779 23.08 282.889 22.96 283.017 22.848C283.145 22.736 283.294 22.6373 283.465 22.552C283.065 22.328 282.753 22.032 282.529 21.664C282.305 21.2907 282.193 20.8587 282.193 20.368C282.193 19.9733 282.267 19.616 282.417 19.296C282.571 18.9707 282.785 18.696 283.057 18.472C283.329 18.2427 283.651 18.0667 284.025 17.944C284.403 17.8213 284.817 17.76 285.265 17.76C285.617 17.76 285.945 17.8 286.249 17.88C286.553 17.9547 286.83 18.0667 287.081 18.216H289.281ZM296.052 21.064C296.052 20.7333 296.004 20.432 295.908 20.16C295.817 19.8827 295.681 19.6453 295.5 19.448C295.324 19.2453 295.108 19.0907 294.852 18.984C294.596 18.872 294.305 18.816 293.98 18.816C293.297 18.816 292.756 19.016 292.356 19.416C291.961 19.8107 291.716 20.36 291.62 21.064H296.052ZM297.204 24.864C297.028 25.0773 296.817 25.264 296.572 25.424C296.327 25.5787 296.063 25.7067 295.78 25.808C295.503 25.9093 295.215 25.984 294.916 26.032C294.617 26.0853 294.321 26.112 294.028 26.112C293.468 26.112 292.951 26.0187 292.476 25.832C292.007 25.64 291.599 25.3627 291.252 25C290.911 24.632 290.644 24.1787 290.452 23.64C290.26 23.1013 290.164 22.4827 290.164 21.784C290.164 21.2187 290.249 20.6907 290.42 20.2C290.596 19.7093 290.847 19.2853 291.172 18.928C291.497 18.5653 291.895 18.2827 292.364 18.08C292.833 17.872 293.361 17.768 293.948 17.768C294.433 17.768 294.881 17.8507 295.292 18.016C295.708 18.176 296.065 18.4107 296.364 18.72C296.668 19.024 296.905 19.4027 297.076 19.856C297.247 20.304 297.332 20.816 297.332 21.392C297.332 21.616 297.308 21.7653 297.26 21.84C297.212 21.9147 297.121 21.952 296.988 21.952H291.572C291.588 22.464 291.657 22.9093 291.78 23.288C291.908 23.6667 292.084 23.984 292.308 24.24C292.532 24.4907 292.799 24.68 293.108 24.808C293.417 24.9307 293.764 24.992 294.148 24.992C294.505 24.992 294.812 24.952 295.068 24.872C295.329 24.7867 295.553 24.696 295.74 24.6C295.927 24.504 296.081 24.416 296.204 24.336C296.332 24.2507 296.441 24.208 296.532 24.208C296.649 24.208 296.74 24.2533 296.804 24.344L297.204 24.864ZM303.801 19.232C303.737 19.3493 303.638 19.408 303.505 19.408C303.425 19.408 303.334 19.3787 303.233 19.32C303.132 19.2613 303.006 19.1973 302.857 19.128C302.713 19.0533 302.54 18.9867 302.337 18.928C302.134 18.864 301.894 18.832 301.617 18.832C301.377 18.832 301.161 18.864 300.969 18.928C300.777 18.9867 300.612 19.0693 300.473 19.176C300.34 19.2827 300.236 19.408 300.161 19.552C300.092 19.6907 300.057 19.8427 300.057 20.008C300.057 20.216 300.116 20.3893 300.233 20.528C300.356 20.6667 300.516 20.7867 300.713 20.888C300.91 20.9893 301.134 21.08 301.385 21.16C301.636 21.2347 301.892 21.3173 302.153 21.408C302.42 21.4933 302.678 21.5893 302.929 21.696C303.18 21.8027 303.404 21.936 303.601 22.096C303.798 22.256 303.956 22.4533 304.073 22.688C304.196 22.9173 304.257 23.1947 304.257 23.52C304.257 23.8933 304.19 24.24 304.057 24.56C303.924 24.8747 303.726 25.1493 303.465 25.384C303.204 25.6133 302.884 25.7947 302.505 25.928C302.126 26.0613 301.689 26.128 301.193 26.128C300.628 26.128 300.116 26.0373 299.657 25.856C299.198 25.6693 298.809 25.432 298.489 25.144L298.825 24.6C298.868 24.5307 298.918 24.4773 298.977 24.44C299.036 24.4027 299.11 24.384 299.201 24.384C299.297 24.384 299.398 24.4213 299.505 24.496C299.612 24.5707 299.74 24.6533 299.889 24.744C300.044 24.8347 300.23 24.9173 300.449 24.992C300.668 25.0667 300.94 25.104 301.265 25.104C301.542 25.104 301.785 25.0693 301.993 25C302.201 24.9253 302.374 24.8267 302.513 24.704C302.652 24.5813 302.753 24.44 302.817 24.28C302.886 24.12 302.921 23.9493 302.921 23.768C302.921 23.544 302.86 23.36 302.737 23.216C302.62 23.0667 302.462 22.9413 302.265 22.84C302.068 22.7333 301.841 22.6427 301.585 22.568C301.334 22.488 301.076 22.4053 300.809 22.32C300.548 22.2347 300.289 22.1387 300.033 22.032C299.782 21.92 299.558 21.7813 299.361 21.616C299.164 21.4507 299.004 21.248 298.881 21.008C298.764 20.7627 298.705 20.4667 298.705 20.12C298.705 19.8107 298.769 19.5147 298.897 19.232C299.025 18.944 299.212 18.6933 299.457 18.48C299.702 18.2613 300.004 18.088 300.361 17.96C300.718 17.832 301.126 17.768 301.585 17.768C302.118 17.768 302.596 17.8533 303.017 18.024C303.444 18.1893 303.812 18.4187 304.121 18.712L303.801 19.232Z" fill="#0D0E43"/>
<path d="M344.848 20.48C345.291 20.48 345.68 20.4213 346.016 20.304C346.357 20.1867 346.643 20.024 346.872 19.816C347.107 19.6027 347.283 19.3493 347.4 19.056C347.517 18.7627 347.576 18.44 347.576 18.088C347.576 17.3573 347.349 16.7867 346.896 16.376C346.448 15.9653 345.765 15.76 344.848 15.76H343.008V20.48H344.848ZM344.848 14.536C345.573 14.536 346.203 14.6213 346.736 14.792C347.275 14.9573 347.72 15.1947 348.072 15.504C348.424 15.8133 348.685 16.1867 348.856 16.624C349.032 17.0613 349.12 17.5493 349.12 18.088C349.12 18.6213 349.027 19.1093 348.84 19.552C348.653 19.9947 348.379 20.376 348.016 20.696C347.659 21.016 347.213 21.2667 346.68 21.448C346.152 21.624 345.541 21.712 344.848 21.712H343.008V26H341.464V14.536H344.848ZM351.933 19.52C352.189 18.9653 352.504 18.5333 352.877 18.224C353.25 17.9093 353.706 17.752 354.245 17.752C354.416 17.752 354.578 17.7707 354.733 17.808C354.893 17.8453 355.034 17.904 355.157 17.984L355.053 19.048C355.021 19.1813 354.941 19.248 354.813 19.248C354.738 19.248 354.629 19.232 354.485 19.2C354.341 19.168 354.178 19.152 353.997 19.152C353.741 19.152 353.512 19.1893 353.309 19.264C353.112 19.3387 352.933 19.4507 352.773 19.6C352.618 19.744 352.477 19.9253 352.349 20.144C352.226 20.3573 352.114 20.6027 352.013 20.88V26H350.581V17.896H351.397C351.552 17.896 351.658 17.9253 351.717 17.984C351.776 18.0427 351.816 18.144 351.837 18.288L351.933 19.52ZM359.497 17.768C360.089 17.768 360.622 17.8667 361.097 18.064C361.572 18.2613 361.977 18.5413 362.313 18.904C362.649 19.2667 362.905 19.7067 363.081 20.224C363.262 20.736 363.353 21.3093 363.353 21.944C363.353 22.584 363.262 23.16 363.081 23.672C362.905 24.184 362.649 24.6213 362.313 24.984C361.977 25.3467 361.572 25.6267 361.097 25.824C360.622 26.016 360.089 26.112 359.497 26.112C358.9 26.112 358.361 26.016 357.881 25.824C357.406 25.6267 357.001 25.3467 356.665 24.984C356.329 24.6213 356.07 24.184 355.889 23.672C355.713 23.16 355.625 22.584 355.625 21.944C355.625 21.3093 355.713 20.736 355.889 20.224C356.07 19.7067 356.329 19.2667 356.665 18.904C357.001 18.5413 357.406 18.2613 357.881 18.064C358.361 17.8667 358.9 17.768 359.497 17.768ZM359.497 25C360.297 25 360.894 24.7333 361.289 24.2C361.684 23.6613 361.881 22.912 361.881 21.952C361.881 20.9867 361.684 20.2347 361.289 19.696C360.894 19.1573 360.297 18.888 359.497 18.888C359.092 18.888 358.737 18.9573 358.433 19.096C358.134 19.2347 357.884 19.4347 357.681 19.696C357.484 19.9573 357.334 20.28 357.233 20.664C357.137 21.0427 357.089 21.472 357.089 21.952C357.089 22.912 357.286 23.6613 357.681 24.2C358.081 24.7333 358.686 25 359.497 25ZM370.439 19.824C370.173 19.4667 369.885 19.2187 369.575 19.08C369.266 18.936 368.919 18.864 368.535 18.864C367.783 18.864 367.205 19.1333 366.799 19.672C366.394 20.2107 366.191 20.9787 366.191 21.976C366.191 22.504 366.237 22.9573 366.327 23.336C366.418 23.7093 366.551 24.0187 366.727 24.264C366.903 24.504 367.119 24.68 367.375 24.792C367.631 24.904 367.922 24.96 368.247 24.96C368.717 24.96 369.125 24.8533 369.471 24.64C369.823 24.4267 370.146 24.1253 370.439 23.736V19.824ZM371.863 14.216V26H371.015C370.813 26 370.685 25.9013 370.631 25.704L370.503 24.72C370.157 25.136 369.762 25.472 369.319 25.728C368.877 25.984 368.365 26.112 367.783 26.112C367.319 26.112 366.898 26.024 366.519 25.848C366.141 25.6667 365.818 25.4027 365.551 25.056C365.285 24.7093 365.079 24.2773 364.935 23.76C364.791 23.2427 364.719 22.648 364.719 21.976C364.719 21.3787 364.799 20.824 364.959 20.312C365.119 19.7947 365.349 19.3467 365.647 18.968C365.946 18.5893 366.311 18.2933 366.743 18.08C367.181 17.8613 367.671 17.752 368.215 17.752C368.711 17.752 369.135 17.8373 369.487 18.008C369.845 18.1733 370.162 18.4053 370.439 18.704V14.216H371.863ZM380.776 17.896V26H379.928C379.726 26 379.598 25.9013 379.544 25.704L379.432 24.832C379.08 25.2213 378.686 25.536 378.248 25.776C377.811 26.0107 377.31 26.128 376.744 26.128C376.302 26.128 375.91 26.056 375.568 25.912C375.232 25.7627 374.95 25.5547 374.72 25.288C374.491 25.0213 374.318 24.6987 374.2 24.32C374.088 23.9413 374.032 23.5227 374.032 23.064V17.896H375.456V23.064C375.456 23.6773 375.595 24.152 375.872 24.488C376.155 24.824 376.584 24.992 377.16 24.992C377.582 24.992 377.974 24.8933 378.336 24.696C378.704 24.4933 379.043 24.216 379.352 23.864V17.896H380.776ZM388.674 19.336C388.632 19.3947 388.589 19.44 388.546 19.472C388.504 19.504 388.445 19.52 388.37 19.52C388.29 19.52 388.202 19.488 388.106 19.424C388.01 19.3547 387.89 19.28 387.746 19.2C387.608 19.12 387.434 19.048 387.226 18.984C387.024 18.9147 386.773 18.88 386.474 18.88C386.074 18.88 385.722 18.952 385.418 19.096C385.114 19.2347 384.858 19.4373 384.65 19.704C384.448 19.9707 384.293 20.2933 384.186 20.672C384.085 21.0507 384.034 21.4747 384.034 21.944C384.034 22.4347 384.09 22.872 384.202 23.256C384.314 23.6347 384.472 23.9547 384.674 24.216C384.882 24.472 385.13 24.6693 385.418 24.808C385.712 24.9413 386.04 25.008 386.402 25.008C386.749 25.008 387.034 24.968 387.258 24.888C387.482 24.8027 387.666 24.7093 387.81 24.608C387.96 24.5067 388.082 24.416 388.178 24.336C388.28 24.2507 388.378 24.208 388.474 24.208C388.592 24.208 388.682 24.2533 388.746 24.344L389.146 24.864C388.97 25.0827 388.77 25.2693 388.546 25.424C388.322 25.5787 388.08 25.7093 387.818 25.816C387.562 25.9173 387.293 25.992 387.01 26.04C386.728 26.088 386.44 26.112 386.146 26.112C385.64 26.112 385.168 26.0187 384.73 25.832C384.298 25.6453 383.922 25.376 383.602 25.024C383.282 24.6667 383.032 24.2293 382.85 23.712C382.669 23.1947 382.578 22.6053 382.578 21.944C382.578 21.3413 382.661 20.784 382.826 20.272C382.997 19.76 383.242 19.32 383.562 18.952C383.888 18.5787 384.285 18.288 384.754 18.08C385.229 17.872 385.773 17.768 386.386 17.768C386.957 17.768 387.458 17.8613 387.89 18.048C388.328 18.2293 388.714 18.488 389.05 18.824L388.674 19.336ZM393.163 26.128C392.523 26.128 392.03 25.9493 391.683 25.592C391.342 25.2347 391.171 24.72 391.171 24.048V19.088H390.195C390.11 19.088 390.038 19.064 389.979 19.016C389.92 18.9627 389.891 18.8827 389.891 18.776V18.208L391.219 18.04L391.547 15.536C391.563 15.456 391.598 15.392 391.651 15.344C391.71 15.2907 391.784 15.264 391.875 15.264H392.595V18.056H394.939V19.088H392.595V23.952C392.595 24.2933 392.678 24.5467 392.843 24.712C393.008 24.8773 393.222 24.96 393.483 24.96C393.632 24.96 393.76 24.9413 393.867 24.904C393.979 24.8613 394.075 24.816 394.155 24.768C394.235 24.72 394.302 24.6773 394.355 24.64C394.414 24.5973 394.464 24.576 394.507 24.576C394.582 24.576 394.648 24.6213 394.707 24.712L395.123 25.392C394.878 25.6213 394.582 25.8027 394.235 25.936C393.888 26.064 393.531 26.128 393.163 26.128ZM401.129 19.232C401.065 19.3493 400.967 19.408 400.833 19.408C400.753 19.408 400.663 19.3787 400.561 19.32C400.46 19.2613 400.335 19.1973 400.185 19.128C400.041 19.0533 399.868 18.9867 399.665 18.928C399.463 18.864 399.223 18.832 398.945 18.832C398.705 18.832 398.489 18.864 398.297 18.928C398.105 18.9867 397.94 19.0693 397.801 19.176C397.668 19.2827 397.564 19.408 397.489 19.552C397.42 19.6907 397.385 19.8427 397.385 20.008C397.385 20.216 397.444 20.3893 397.561 20.528C397.684 20.6667 397.844 20.7867 398.041 20.888C398.239 20.9893 398.463 21.08 398.713 21.16C398.964 21.2347 399.22 21.3173 399.481 21.408C399.748 21.4933 400.007 21.5893 400.257 21.696C400.508 21.8027 400.732 21.936 400.929 22.096C401.127 22.256 401.284 22.4533 401.401 22.688C401.524 22.9173 401.585 23.1947 401.585 23.52C401.585 23.8933 401.519 24.24 401.385 24.56C401.252 24.8747 401.055 25.1493 400.793 25.384C400.532 25.6133 400.212 25.7947 399.833 25.928C399.455 26.0613 399.017 26.128 398.521 26.128C397.956 26.128 397.444 26.0373 396.985 25.856C396.527 25.6693 396.137 25.432 395.817 25.144L396.153 24.6C396.196 24.5307 396.247 24.4773 396.305 24.44C396.364 24.4027 396.439 24.384 396.529 24.384C396.625 24.384 396.727 24.4213 396.833 24.496C396.94 24.5707 397.068 24.6533 397.217 24.744C397.372 24.8347 397.559 24.9173 397.777 24.992C397.996 25.0667 398.268 25.104 398.593 25.104C398.871 25.104 399.113 25.0693 399.321 25C399.529 24.9253 399.703 24.8267 399.841 24.704C399.98 24.5813 400.081 24.44 400.145 24.28C400.215 24.12 400.249 23.9493 400.249 23.768C400.249 23.544 400.188 23.36 400.065 23.216C399.948 23.0667 399.791 22.9413 399.593 22.84C399.396 22.7333 399.169 22.6427 398.913 22.568C398.663 22.488 398.404 22.4053 398.137 22.32C397.876 22.2347 397.617 22.1387 397.361 22.032C397.111 21.92 396.887 21.7813 396.689 21.616C396.492 21.4507 396.332 21.248 396.209 21.008C396.092 20.7627 396.033 20.4667 396.033 20.12C396.033 19.8107 396.097 19.5147 396.225 19.232C396.353 18.944 396.54 18.6933 396.785 18.48C397.031 18.2613 397.332 18.088 397.689 17.96C398.047 17.832 398.455 17.768 398.913 17.768C399.447 17.768 399.924 17.8533 400.345 18.024C400.772 18.1893 401.14 18.4187 401.449 18.712L401.129 19.232Z" fill="#0D0E43"/>
<path d="M444.488 24.768C444.931 24.768 445.312 24.7173 445.632 24.616C445.952 24.5147 446.213 24.3733 446.416 24.192C446.624 24.0053 446.776 23.7867 446.872 23.536C446.968 23.28 447.016 23 447.016 22.696C447.016 22.104 446.805 21.6373 446.384 21.296C445.963 20.9493 445.331 20.776 444.488 20.776H442.008V24.768H444.488ZM442.008 15.76V19.672H444.056C444.493 19.672 444.872 19.624 445.192 19.528C445.517 19.432 445.784 19.2987 445.992 19.128C446.205 18.9573 446.363 18.752 446.464 18.512C446.565 18.2667 446.616 18 446.616 17.712C446.616 17.0347 446.413 16.5413 446.008 16.232C445.603 15.9173 444.973 15.76 444.12 15.76H442.008ZM444.12 14.536C444.824 14.536 445.429 14.6053 445.936 14.744C446.448 14.8827 446.867 15.08 447.192 15.336C447.523 15.592 447.765 15.9067 447.92 16.28C448.075 16.648 448.152 17.064 448.152 17.528C448.152 17.8107 448.107 18.0827 448.016 18.344C447.931 18.6 447.8 18.84 447.624 19.064C447.448 19.288 447.224 19.4907 446.952 19.672C446.685 19.848 446.371 19.992 446.008 20.104C446.851 20.264 447.483 20.5653 447.904 21.008C448.331 21.4453 448.544 22.0213 448.544 22.736C448.544 23.2213 448.453 23.664 448.272 24.064C448.096 24.464 447.835 24.808 447.488 25.096C447.147 25.384 446.725 25.608 446.224 25.768C445.723 25.9227 445.152 26 444.512 26H440.464V14.536H444.12ZM451.788 14.216V26H450.363V14.216H451.788ZM457.513 17.768C458.105 17.768 458.638 17.8667 459.113 18.064C459.587 18.2613 459.993 18.5413 460.329 18.904C460.665 19.2667 460.921 19.7067 461.097 20.224C461.278 20.736 461.369 21.3093 461.369 21.944C461.369 22.584 461.278 23.16 461.097 23.672C460.921 24.184 460.665 24.6213 460.329 24.984C459.993 25.3467 459.587 25.6267 459.113 25.824C458.638 26.016 458.105 26.112 457.513 26.112C456.915 26.112 456.377 26.016 455.897 25.824C455.422 25.6267 455.017 25.3467 454.681 24.984C454.345 24.6213 454.086 24.184 453.905 23.672C453.729 23.16 453.641 22.584 453.641 21.944C453.641 21.3093 453.729 20.736 453.905 20.224C454.086 19.7067 454.345 19.2667 454.681 18.904C455.017 18.5413 455.422 18.2613 455.897 18.064C456.377 17.8667 456.915 17.768 457.513 17.768ZM457.513 25C458.313 25 458.91 24.7333 459.305 24.2C459.699 23.6613 459.897 22.912 459.897 21.952C459.897 20.9867 459.699 20.2347 459.305 19.696C458.91 19.1573 458.313 18.888 457.513 18.888C457.107 18.888 456.753 18.9573 456.449 19.096C456.15 19.2347 455.899 19.4347 455.697 19.696C455.499 19.9573 455.35 20.28 455.249 20.664C455.153 21.0427 455.105 21.472 455.105 21.952C455.105 22.912 455.302 23.6613 455.697 24.2C456.097 24.7333 456.702 25 457.513 25ZM465.952 22.04C466.24 22.04 466.493 22 466.712 21.92C466.931 21.84 467.115 21.728 467.264 21.584C467.413 21.44 467.525 21.2693 467.6 21.072C467.675 20.8693 467.712 20.648 467.712 20.408C467.712 19.912 467.56 19.5173 467.256 19.224C466.957 18.9307 466.523 18.784 465.952 18.784C465.376 18.784 464.936 18.9307 464.632 19.224C464.333 19.5173 464.184 19.912 464.184 20.408C464.184 20.648 464.221 20.8693 464.296 21.072C464.376 21.2693 464.491 21.44 464.64 21.584C464.789 21.728 464.973 21.84 465.192 21.92C465.411 22 465.664 22.04 465.952 22.04ZM468.52 26.44C468.52 26.2427 468.464 26.0827 468.352 25.96C468.24 25.8373 468.088 25.7413 467.896 25.672C467.709 25.6027 467.491 25.5547 467.24 25.528C466.989 25.496 466.723 25.472 466.44 25.456C466.163 25.44 465.88 25.424 465.592 25.408C465.304 25.392 465.027 25.3653 464.76 25.328C464.461 25.4667 464.216 25.6427 464.024 25.856C463.837 26.064 463.744 26.3093 463.744 26.592C463.744 26.7733 463.789 26.9413 463.88 27.096C463.976 27.256 464.12 27.392 464.312 27.504C464.504 27.6213 464.744 27.712 465.032 27.776C465.325 27.8453 465.669 27.88 466.064 27.88C466.448 27.88 466.792 27.8453 467.096 27.776C467.4 27.7067 467.656 27.608 467.864 27.48C468.077 27.352 468.24 27.2 468.352 27.024C468.464 26.848 468.52 26.6533 468.52 26.44ZM469.968 18.216V18.744C469.968 18.92 469.856 19.032 469.632 19.08L468.712 19.2C468.893 19.552 468.984 19.9413 468.984 20.368C468.984 20.7627 468.907 21.1227 468.752 21.448C468.603 21.768 468.395 22.0427 468.128 22.272C467.861 22.5013 467.541 22.6773 467.168 22.8C466.795 22.9227 466.389 22.984 465.952 22.984C465.573 22.984 465.216 22.9387 464.88 22.848C464.709 22.9547 464.579 23.0693 464.488 23.192C464.397 23.3093 464.352 23.4293 464.352 23.552C464.352 23.744 464.429 23.8907 464.584 23.992C464.744 24.088 464.952 24.1573 465.208 24.2C465.464 24.2427 465.755 24.2693 466.08 24.28C466.411 24.2907 466.747 24.3093 467.088 24.336C467.435 24.3573 467.771 24.3973 468.096 24.456C468.427 24.5147 468.72 24.6107 468.976 24.744C469.232 24.8773 469.437 25.0613 469.592 25.296C469.752 25.5307 469.832 25.8347 469.832 26.208C469.832 26.5547 469.744 26.8907 469.568 27.216C469.397 27.5413 469.149 27.8293 468.824 28.08C468.499 28.336 468.099 28.5387 467.624 28.688C467.155 28.8427 466.624 28.92 466.032 28.92C465.44 28.92 464.923 28.8613 464.48 28.744C464.037 28.6267 463.669 28.4693 463.376 28.272C463.083 28.0747 462.861 27.8453 462.712 27.584C462.568 27.328 462.496 27.0587 462.496 26.776C462.496 26.376 462.621 26.0373 462.872 25.76C463.123 25.4827 463.467 25.2613 463.904 25.096C463.664 24.9893 463.472 24.848 463.328 24.672C463.189 24.4907 463.12 24.248 463.12 23.944C463.12 23.8267 463.141 23.7067 463.184 23.584C463.227 23.456 463.291 23.3307 463.376 23.208C463.467 23.08 463.576 22.96 463.704 22.848C463.832 22.736 463.981 22.6373 464.152 22.552C463.752 22.328 463.44 22.032 463.216 21.664C462.992 21.2907 462.88 20.8587 462.88 20.368C462.88 19.9733 462.955 19.616 463.104 19.296C463.259 18.9707 463.472 18.696 463.744 18.472C464.016 18.2427 464.339 18.0667 464.712 17.944C465.091 17.8213 465.504 17.76 465.952 17.76C466.304 17.76 466.632 17.8 466.936 17.88C467.24 17.9547 467.517 18.0667 467.768 18.216H469.968Z" fill="#0D0E43"/>
<path d="M513.328 16.328C513.28 16.408 513.227 16.4693 513.168 16.512C513.115 16.5493 513.048 16.568 512.968 16.568C512.877 16.568 512.771 16.5227 512.648 16.432C512.525 16.3413 512.371 16.2427 512.184 16.136C512.003 16.024 511.781 15.9227 511.52 15.832C511.264 15.7413 510.952 15.696 510.584 15.696C510.237 15.696 509.931 15.744 509.664 15.84C509.403 15.9307 509.181 16.056 509 16.216C508.824 16.376 508.691 16.5653 508.6 16.784C508.509 16.9973 508.464 17.2293 508.464 17.48C508.464 17.8 508.541 18.0667 508.696 18.28C508.856 18.488 509.064 18.6667 509.32 18.816C509.581 18.9653 509.875 19.096 510.2 19.208C510.531 19.3147 510.867 19.4267 511.208 19.544C511.555 19.6613 511.891 19.7947 512.216 19.944C512.547 20.088 512.84 20.272 513.096 20.496C513.357 20.72 513.565 20.9947 513.72 21.32C513.88 21.6453 513.96 22.0453 513.96 22.52C513.96 23.0213 513.875 23.4933 513.704 23.936C513.533 24.3733 513.283 24.7547 512.952 25.08C512.627 25.4053 512.224 25.6613 511.744 25.848C511.269 26.0347 510.728 26.128 510.12 26.128C509.373 26.128 508.696 25.9947 508.088 25.728C507.48 25.456 506.96 25.0907 506.528 24.632L506.976 23.896C507.019 23.8373 507.069 23.7893 507.128 23.752C507.192 23.7093 507.261 23.688 507.336 23.688C507.405 23.688 507.483 23.7173 507.568 23.776C507.659 23.8293 507.76 23.8987 507.872 23.984C507.984 24.0693 508.112 24.1627 508.256 24.264C508.4 24.3653 508.563 24.4587 508.744 24.544C508.931 24.6293 509.141 24.7013 509.376 24.76C509.611 24.8133 509.875 24.84 510.168 24.84C510.536 24.84 510.864 24.7893 511.152 24.688C511.44 24.5867 511.683 24.4453 511.88 24.264C512.083 24.0773 512.237 23.856 512.344 23.6C512.451 23.344 512.504 23.0587 512.504 22.744C512.504 22.3973 512.424 22.1147 512.264 21.896C512.109 21.672 511.904 21.4853 511.648 21.336C511.392 21.1867 511.099 21.0613 510.768 20.96C510.437 20.8533 510.101 20.7467 509.76 20.64C509.419 20.528 509.083 20.4 508.752 20.256C508.421 20.112 508.128 19.9253 507.872 19.696C507.616 19.4667 507.408 19.1813 507.248 18.84C507.093 18.4933 507.016 18.0667 507.016 17.56C507.016 17.1547 507.093 16.7627 507.248 16.384C507.408 16.0053 507.637 15.6693 507.936 15.376C508.24 15.0827 508.611 14.848 509.048 14.672C509.491 14.496 509.997 14.408 510.568 14.408C511.208 14.408 511.789 14.5093 512.312 14.712C512.84 14.9147 513.304 15.208 513.704 15.592L513.328 16.328ZM517.107 18.976C517.454 18.608 517.838 18.3147 518.259 18.096C518.68 17.8773 519.166 17.768 519.715 17.768C520.158 17.768 520.547 17.8427 520.883 17.992C521.224 18.136 521.507 18.344 521.731 18.616C521.96 18.8827 522.134 19.2053 522.251 19.584C522.368 19.9627 522.427 20.3813 522.427 20.84V26H520.995V20.84C520.995 20.2267 520.854 19.752 520.571 19.416C520.294 19.0747 519.87 18.904 519.299 18.904C518.878 18.904 518.483 19.0053 518.115 19.208C517.752 19.4107 517.416 19.6853 517.107 20.032V26H515.675V14.216H517.107V18.976ZM528.013 17.768C528.605 17.768 529.138 17.8667 529.613 18.064C530.087 18.2613 530.493 18.5413 530.829 18.904C531.165 19.2667 531.421 19.7067 531.597 20.224C531.778 20.736 531.869 21.3093 531.869 21.944C531.869 22.584 531.778 23.16 531.597 23.672C531.421 24.184 531.165 24.6213 530.829 24.984C530.493 25.3467 530.087 25.6267 529.613 25.824C529.138 26.016 528.605 26.112 528.013 26.112C527.415 26.112 526.877 26.016 526.397 25.824C525.922 25.6267 525.517 25.3467 525.181 24.984C524.845 24.6213 524.586 24.184 524.405 23.672C524.229 23.16 524.141 22.584 524.141 21.944C524.141 21.3093 524.229 20.736 524.405 20.224C524.586 19.7067 524.845 19.2667 525.181 18.904C525.517 18.5413 525.922 18.2613 526.397 18.064C526.877 17.8667 527.415 17.768 528.013 17.768ZM528.013 25C528.813 25 529.41 24.7333 529.805 24.2C530.199 23.6613 530.397 22.912 530.397 21.952C530.397 20.9867 530.199 20.2347 529.805 19.696C529.41 19.1573 528.813 18.888 528.013 18.888C527.607 18.888 527.253 18.9573 526.949 19.096C526.65 19.2347 526.399 19.4347 526.197 19.696C525.999 19.9573 525.85 20.28 525.749 20.664C525.653 21.0427 525.605 21.472 525.605 21.952C525.605 22.912 525.802 23.6613 526.197 24.2C526.597 24.7333 527.202 25 528.013 25ZM535.107 24.048C535.368 24.4 535.654 24.648 535.963 24.792C536.272 24.936 536.619 25.008 537.003 25.008C537.76 25.008 538.342 24.7387 538.747 24.2C539.152 23.6613 539.355 22.8933 539.355 21.896C539.355 21.368 539.307 20.9147 539.211 20.536C539.12 20.1573 538.987 19.848 538.811 19.608C538.635 19.3627 538.419 19.184 538.163 19.072C537.907 18.96 537.616 18.904 537.291 18.904C536.827 18.904 536.419 19.0107 536.067 19.224C535.72 19.4373 535.4 19.7387 535.107 20.128V24.048ZM535.035 19.152C535.376 18.7307 535.771 18.392 536.219 18.136C536.667 17.88 537.179 17.752 537.755 17.752C538.224 17.752 538.648 17.8427 539.027 18.024C539.406 18.2 539.728 18.464 539.995 18.816C540.262 19.1627 540.467 19.5947 540.611 20.112C540.755 20.6293 540.827 21.224 540.827 21.896C540.827 22.4933 540.747 23.0507 540.587 23.568C540.427 24.08 540.195 24.5253 539.891 24.904C539.592 25.2773 539.224 25.5733 538.787 25.792C538.355 26.0053 537.867 26.112 537.323 26.112C536.827 26.112 536.4 26.0293 536.043 25.864C535.691 25.6933 535.379 25.4587 535.107 25.16V28.744H533.675V17.896H534.531C534.734 17.896 534.859 17.9947 534.907 18.192L535.035 19.152Z" fill="#0D0E43"/>
<path d="M586.512 23.632C586.597 23.632 586.672 23.6667 586.736 23.736L587.352 24.4C586.883 24.944 586.312 25.368 585.64 25.672C584.973 25.976 584.165 26.128 583.216 26.128C582.395 26.128 581.648 25.9867 580.976 25.704C580.304 25.416 579.731 25.016 579.256 24.504C578.781 23.9867 578.413 23.368 578.152 22.648C577.891 21.928 577.76 21.136 577.76 20.272C577.76 19.408 577.896 18.616 578.168 17.896C578.44 17.176 578.821 16.5573 579.312 16.04C579.808 15.5227 580.4 15.1227 581.088 14.84C581.776 14.552 582.536 14.408 583.368 14.408C584.184 14.408 584.904 14.5387 585.528 14.8C586.152 15.0613 586.701 15.416 587.176 15.864L586.664 16.576C586.632 16.6293 586.589 16.6747 586.536 16.712C586.488 16.744 586.421 16.76 586.336 16.76C586.24 16.76 586.123 16.7093 585.984 16.608C585.845 16.5013 585.664 16.384 585.44 16.256C585.216 16.128 584.936 16.0133 584.6 15.912C584.264 15.8053 583.851 15.752 583.36 15.752C582.768 15.752 582.227 15.856 581.736 16.064C581.245 16.2667 580.821 16.5627 580.464 16.952C580.112 17.3413 579.837 17.816 579.64 18.376C579.443 18.936 579.344 19.568 579.344 20.272C579.344 20.9867 579.445 21.624 579.648 22.184C579.856 22.744 580.136 23.2187 580.488 23.608C580.845 23.992 581.264 24.2853 581.744 24.488C582.229 24.6907 582.752 24.792 583.312 24.792C583.653 24.792 583.96 24.7733 584.232 24.736C584.509 24.6933 584.763 24.6293 584.992 24.544C585.227 24.4587 585.443 24.352 585.64 24.224C585.843 24.0907 586.043 23.9333 586.24 23.752C586.331 23.672 586.421 23.632 586.512 23.632ZM592.075 17.768C592.667 17.768 593.201 17.8667 593.675 18.064C594.15 18.2613 594.555 18.5413 594.891 18.904C595.227 19.2667 595.483 19.7067 595.659 20.224C595.841 20.736 595.931 21.3093 595.931 21.944C595.931 22.584 595.841 23.16 595.659 23.672C595.483 24.184 595.227 24.6213 594.891 24.984C594.555 25.3467 594.15 25.6267 593.675 25.824C593.201 26.016 592.667 26.112 592.075 26.112C591.478 26.112 590.939 26.016 590.459 25.824C589.985 25.6267 589.579 25.3467 589.243 24.984C588.907 24.6213 588.649 24.184 588.467 23.672C588.291 23.16 588.203 22.584 588.203 21.944C588.203 21.3093 588.291 20.736 588.467 20.224C588.649 19.7067 588.907 19.2667 589.243 18.904C589.579 18.5413 589.985 18.2613 590.459 18.064C590.939 17.8667 591.478 17.768 592.075 17.768ZM592.075 25C592.875 25 593.473 24.7333 593.867 24.2C594.262 23.6613 594.459 22.912 594.459 21.952C594.459 20.9867 594.262 20.2347 593.867 19.696C593.473 19.1573 592.875 18.888 592.075 18.888C591.67 18.888 591.315 18.9573 591.011 19.096C590.713 19.2347 590.462 19.4347 590.259 19.696C590.062 19.9573 589.913 20.28 589.811 20.664C589.715 21.0427 589.667 21.472 589.667 21.952C589.667 22.912 589.865 23.6613 590.259 24.2C590.659 24.7333 591.265 25 592.075 25ZM599.081 19.072C599.257 18.8747 599.444 18.696 599.641 18.536C599.839 18.376 600.047 18.24 600.265 18.128C600.489 18.0107 600.724 17.9227 600.969 17.864C601.22 17.8 601.489 17.768 601.777 17.768C602.22 17.768 602.609 17.8427 602.945 17.992C603.287 18.136 603.569 18.344 603.793 18.616C604.023 18.8827 604.196 19.2053 604.313 19.584C604.431 19.9627 604.489 20.3813 604.489 20.84V26H603.057V20.84C603.057 20.2267 602.916 19.752 602.633 19.416C602.356 19.0747 601.932 18.904 601.361 18.904C600.94 18.904 600.545 19.0053 600.177 19.208C599.815 19.4107 599.479 19.6853 599.169 20.032V26H597.737V17.896H598.593C598.796 17.896 598.921 17.9947 598.969 18.192L599.081 19.072ZM609.038 26.128C608.398 26.128 607.905 25.9493 607.558 25.592C607.217 25.2347 607.046 24.72 607.046 24.048V19.088H606.07C605.985 19.088 605.913 19.064 605.854 19.016C605.795 18.9627 605.766 18.8827 605.766 18.776V18.208L607.094 18.04L607.422 15.536C607.438 15.456 607.473 15.392 607.526 15.344C607.585 15.2907 607.659 15.264 607.75 15.264H608.47V18.056H610.814V19.088H608.47V23.952C608.47 24.2933 608.553 24.5467 608.718 24.712C608.883 24.8773 609.097 24.96 609.358 24.96C609.507 24.96 609.635 24.9413 609.742 24.904C609.854 24.8613 609.95 24.816 610.03 24.768C610.11 24.72 610.177 24.6773 610.23 24.64C610.289 24.5973 610.339 24.576 610.382 24.576C610.457 24.576 610.523 24.6213 610.582 24.712L610.998 25.392C610.753 25.6213 610.457 25.8027 610.11 25.936C609.763 26.064 609.406 26.128 609.038 26.128ZM616.676 22.352C616.02 22.3733 615.46 22.4267 614.996 22.512C614.538 22.592 614.162 22.6987 613.868 22.832C613.58 22.9653 613.37 23.1227 613.236 23.304C613.108 23.4853 613.044 23.688 613.044 23.912C613.044 24.1253 613.079 24.3093 613.148 24.464C613.218 24.6187 613.311 24.7467 613.428 24.848C613.551 24.944 613.692 25.016 613.852 25.064C614.018 25.1067 614.194 25.128 614.38 25.128C614.631 25.128 614.86 25.104 615.068 25.056C615.276 25.0027 615.471 24.928 615.652 24.832C615.839 24.736 616.015 24.6213 616.18 24.488C616.351 24.3547 616.516 24.2027 616.676 24.032V22.352ZM612.076 19.04C612.524 18.608 613.007 18.2853 613.524 18.072C614.042 17.8587 614.615 17.752 615.244 17.752C615.698 17.752 616.1 17.8267 616.452 17.976C616.804 18.1253 617.1 18.3333 617.34 18.6C617.58 18.8667 617.762 19.1893 617.884 19.568C618.007 19.9467 618.068 20.3627 618.068 20.816V26H617.436C617.298 26 617.191 25.9787 617.116 25.936C617.042 25.888 616.983 25.7973 616.94 25.664L616.78 24.896C616.567 25.0933 616.359 25.2693 616.156 25.424C615.954 25.5733 615.74 25.7013 615.516 25.808C615.292 25.9093 615.052 25.9867 614.796 26.04C614.546 26.0987 614.266 26.128 613.956 26.128C613.642 26.128 613.346 26.0853 613.068 26C612.791 25.9093 612.548 25.776 612.34 25.6C612.138 25.424 611.975 25.2027 611.852 24.936C611.735 24.664 611.676 24.344 611.676 23.976C611.676 23.656 611.764 23.3493 611.94 23.056C612.116 22.7573 612.402 22.4933 612.796 22.264C613.191 22.0347 613.706 21.848 614.34 21.704C614.975 21.5547 615.754 21.4693 616.676 21.448V20.816C616.676 20.1867 616.54 19.712 616.268 19.392C615.996 19.0667 615.599 18.904 615.076 18.904C614.724 18.904 614.428 18.9493 614.188 19.04C613.954 19.1253 613.748 19.224 613.572 19.336C613.402 19.4427 613.252 19.5413 613.124 19.632C613.002 19.7173 612.879 19.76 612.756 19.76C612.66 19.76 612.578 19.736 612.508 19.688C612.439 19.6347 612.38 19.5707 612.332 19.496L612.076 19.04ZM625.877 19.336C625.835 19.3947 625.792 19.44 625.749 19.472C625.707 19.504 625.648 19.52 625.573 19.52C625.493 19.52 625.405 19.488 625.309 19.424C625.213 19.3547 625.093 19.28 624.949 19.2C624.811 19.12 624.637 19.048 624.429 18.984C624.227 18.9147 623.976 18.88 623.677 18.88C623.277 18.88 622.925 18.952 622.621 19.096C622.317 19.2347 622.061 19.4373 621.853 19.704C621.651 19.9707 621.496 20.2933 621.389 20.672C621.288 21.0507 621.237 21.4747 621.237 21.944C621.237 22.4347 621.293 22.872 621.405 23.256C621.517 23.6347 621.675 23.9547 621.877 24.216C622.085 24.472 622.333 24.6693 622.621 24.808C622.915 24.9413 623.243 25.008 623.605 25.008C623.952 25.008 624.237 24.968 624.461 24.888C624.685 24.8027 624.869 24.7093 625.013 24.608C625.163 24.5067 625.285 24.416 625.381 24.336C625.483 24.2507 625.581 24.208 625.677 24.208C625.795 24.208 625.885 24.2533 625.949 24.344L626.349 24.864C626.173 25.0827 625.973 25.2693 625.749 25.424C625.525 25.5787 625.283 25.7093 625.021 25.816C624.765 25.9173 624.496 25.992 624.213 26.04C623.931 26.088 623.643 26.112 623.349 26.112C622.843 26.112 622.371 26.0187 621.933 25.832C621.501 25.6453 621.125 25.376 620.805 25.024C620.485 24.6667 620.235 24.2293 620.053 23.712C619.872 23.1947 619.781 22.6053 619.781 21.944C619.781 21.3413 619.864 20.784 620.029 20.272C620.2 19.76 620.445 19.32 620.765 18.952C621.091 18.5787 621.488 18.288 621.957 18.08C622.432 17.872 622.976 17.768 623.589 17.768C624.16 17.768 624.661 17.8613 625.093 18.048C625.531 18.2293 625.917 18.488 626.253 18.824L625.877 19.336ZM630.366 26.128C629.726 26.128 629.233 25.9493 628.886 25.592C628.545 25.2347 628.374 24.72 628.374 24.048V19.088H627.398C627.313 19.088 627.241 19.064 627.182 19.016C627.123 18.9627 627.094 18.8827 627.094 18.776V18.208L628.422 18.04L628.75 15.536C628.766 15.456 628.801 15.392 628.854 15.344C628.913 15.2907 628.987 15.264 629.078 15.264H629.798V18.056H632.142V19.088H629.798V23.952C629.798 24.2933 629.881 24.5467 630.046 24.712C630.211 24.8773 630.425 24.96 630.686 24.96C630.835 24.96 630.963 24.9413 631.07 24.904C631.182 24.8613 631.278 24.816 631.358 24.768C631.438 24.72 631.505 24.6773 631.558 24.64C631.617 24.5973 631.667 24.576 631.71 24.576C631.785 24.576 631.851 24.6213 631.91 24.712L632.326 25.392C632.081 25.6213 631.785 25.8027 631.438 25.936C631.091 26.064 630.734 26.128 630.366 26.128Z" fill="#0D0E43"/>
<rect x="861" y="1" width="315" height="38" stroke="#E7E6EF" stroke-width="2"/>
<rect x="1126" width="51" height="40" fill="#FB2E86"/>
<path d="M24.276 3.976V29H19.346V18.834H8.16V29H3.23V3.976H8.16V14.074H19.346V3.976H24.276ZM37.2502 29.408C35.4369 29.408 33.8955 29.068 32.6262 28.388C31.3795 27.708 30.4275 26.7673 29.7702 25.566C29.1129 24.3647 28.7842 22.982 28.7842 21.418C28.7842 19.922 29.1695 18.5733 29.9402 17.372C30.7109 16.1707 31.7422 15.2187 33.0342 14.516C34.3262 13.7907 35.7655 13.428 37.3522 13.428C39.4829 13.428 41.2282 14.0513 42.5882 15.298C43.9709 16.522 44.8662 18.3013 45.2742 20.636L33.7142 24.308L32.6602 21.724L41.0242 18.902L40.0382 19.344C39.8569 18.7547 39.5282 18.2447 39.0522 17.814C38.5989 17.3607 37.9075 17.134 36.9782 17.134C36.2755 17.134 35.6522 17.304 35.1082 17.644C34.5869 17.9613 34.1789 18.426 33.8842 19.038C33.6122 19.6273 33.4762 20.33 33.4762 21.146C33.4762 22.0753 33.6462 22.8573 33.9862 23.492C34.3262 24.104 34.7909 24.5687 35.3802 24.886C35.9695 25.2033 36.6269 25.362 37.3522 25.362C37.8735 25.362 38.3722 25.2713 38.8482 25.09C39.3469 24.9087 39.8342 24.6707 40.3102 24.376L42.4182 27.912C41.6249 28.3653 40.7635 28.728 39.8342 29C38.9275 29.272 38.0662 29.408 37.2502 29.408ZM48.7332 29V2.174H53.4932V29H48.7332ZM57.2672 18.902L63.9992 29H58.4572L54.1392 21.622L57.2672 18.902ZM52.0652 24.886L51.5892 20.364L60.5652 13.768L63.4552 16.318L52.0652 24.886ZM68.6877 7.614H73.4477V14.074H77.0517V17.78H73.4477V29H68.6877V17.78H66.3757V14.074H68.6877V7.614ZM79.5186 21.384C79.5186 19.8653 79.8699 18.5053 80.5726 17.304C81.2979 16.1027 82.3066 15.162 83.5986 14.482C84.8906 13.7793 86.3752 13.428 88.0526 13.428C89.7526 13.428 91.2259 13.7793 92.4726 14.482C93.7192 15.162 94.6712 16.1027 95.3286 17.304C96.0086 18.5053 96.3486 19.8653 96.3486 21.384C96.3486 22.9027 96.0086 24.274 95.3286 25.498C94.6712 26.6993 93.7192 27.6513 92.4726 28.354C91.2259 29.0567 89.7299 29.408 87.9846 29.408C86.3526 29.408 84.8906 29.0907 83.5986 28.456C82.3292 27.8213 81.3319 26.9033 80.6066 25.702C79.8812 24.5007 79.5186 23.0613 79.5186 21.384ZM84.3126 21.418C84.3126 22.1887 84.4712 22.8913 84.7886 23.526C85.1059 24.138 85.5366 24.6253 86.0806 24.988C86.6246 25.3507 87.2366 25.532 87.9166 25.532C88.6646 25.532 89.3106 25.3507 89.8546 24.988C90.3986 24.6253 90.8179 24.138 91.1126 23.526C91.4072 22.8913 91.5546 22.1887 91.5546 21.418C91.5546 20.6247 91.4072 19.922 91.1126 19.31C90.8179 18.698 90.3986 18.2107 89.8546 17.848C89.3106 17.4853 88.6646 17.304 87.9166 17.304C87.2366 17.304 86.6246 17.4853 86.0806 17.848C85.5366 18.2107 85.1059 18.698 84.7886 19.31C84.4712 19.922 84.3126 20.6247 84.3126 21.418Z" fill="#0D0E43"/>
<path d="M196.752 14.536V26H195.2V20.784H189.016V26H187.464V14.536H189.016V19.648H195.2V14.536H196.752ZM202.513 17.768C203.105 17.768 203.638 17.8667 204.113 18.064C204.587 18.2613 204.993 18.5413 205.329 18.904C205.665 19.2667 205.921 19.7067 206.097 20.224C206.278 20.736 206.369 21.3093 206.369 21.944C206.369 22.584 206.278 23.16 206.097 23.672C205.921 24.184 205.665 24.6213 205.329 24.984C204.993 25.3467 204.587 25.6267 204.113 25.824C203.638 26.016 203.105 26.112 202.513 26.112C201.915 26.112 201.377 26.016 200.897 25.824C200.422 25.6267 200.017 25.3467 199.681 24.984C199.345 24.6213 199.086 24.184 198.905 23.672C198.729 23.16 198.641 22.584 198.641 21.944C198.641 21.3093 198.729 20.736 198.905 20.224C199.086 19.7067 199.345 19.2667 199.681 18.904C200.017 18.5413 200.422 18.2613 200.897 18.064C201.377 17.8667 201.915 17.768 202.513 17.768ZM202.513 25C203.313 25 203.91 24.7333 204.305 24.2C204.699 23.6613 204.897 22.912 204.897 21.952C204.897 20.9867 204.699 20.2347 204.305 19.696C203.91 19.1573 203.313 18.888 202.513 18.888C202.107 18.888 201.753 18.9573 201.449 19.096C201.15 19.2347 200.899 19.4347 200.697 19.696C200.499 19.9573 200.35 20.28 200.249 20.664C200.153 21.0427 200.105 21.472 200.105 21.952C200.105 22.912 200.302 23.6613 200.697 24.2C201.097 24.7333 201.702 25 202.513 25ZM208.175 26V17.896H209.031C209.234 17.896 209.359 17.9947 209.407 18.192L209.511 19.024C209.81 18.656 210.146 18.3547 210.519 18.12C210.892 17.8853 211.324 17.768 211.815 17.768C212.359 17.768 212.799 17.92 213.135 18.224C213.476 18.528 213.722 18.9387 213.871 19.456C213.988 19.1627 214.138 18.9093 214.319 18.696C214.506 18.4827 214.714 18.3067 214.943 18.168C215.172 18.0293 215.415 17.928 215.671 17.864C215.932 17.8 216.196 17.768 216.463 17.768C216.89 17.768 217.268 17.8373 217.599 17.976C217.935 18.1093 218.218 18.3067 218.447 18.568C218.682 18.8293 218.86 19.152 218.983 19.536C219.106 19.9147 219.167 20.3493 219.167 20.84V26H217.735V20.84C217.735 20.2053 217.596 19.7253 217.319 19.4C217.042 19.0693 216.642 18.904 216.119 18.904C215.884 18.904 215.66 18.9467 215.447 19.032C215.239 19.112 215.055 19.232 214.895 19.392C214.735 19.552 214.607 19.7547 214.511 20C214.42 20.24 214.375 20.52 214.375 20.84V26H212.943V20.84C212.943 20.1893 212.812 19.704 212.551 19.384C212.29 19.064 211.908 18.904 211.407 18.904C211.055 18.904 210.73 19 210.431 19.192C210.132 19.3787 209.858 19.6347 209.607 19.96V26H208.175ZM226.755 21.064C226.755 20.7333 226.707 20.432 226.611 20.16C226.52 19.8827 226.384 19.6453 226.203 19.448C226.027 19.2453 225.811 19.0907 225.555 18.984C225.299 18.872 225.008 18.816 224.683 18.816C224 18.816 223.459 19.016 223.059 19.416C222.664 19.8107 222.419 20.36 222.323 21.064H226.755ZM227.907 24.864C227.731 25.0773 227.52 25.264 227.275 25.424C227.03 25.5787 226.766 25.7067 226.483 25.808C226.206 25.9093 225.918 25.984 225.619 26.032C225.32 26.0853 225.024 26.112 224.731 26.112C224.171 26.112 223.654 26.0187 223.179 25.832C222.71 25.64 222.302 25.3627 221.955 25C221.614 24.632 221.347 24.1787 221.155 23.64C220.963 23.1013 220.867 22.4827 220.867 21.784C220.867 21.2187 220.952 20.6907 221.123 20.2C221.299 19.7093 221.55 19.2853 221.875 18.928C222.2 18.5653 222.598 18.2827 223.067 18.08C223.536 17.872 224.064 17.768 224.651 17.768C225.136 17.768 225.584 17.8507 225.995 18.016C226.411 18.176 226.768 18.4107 227.067 18.72C227.371 19.024 227.608 19.4027 227.779 19.856C227.95 20.304 228.035 20.816 228.035 21.392C228.035 21.616 228.011 21.7653 227.963 21.84C227.915 21.9147 227.824 21.952 227.691 21.952H222.275C222.291 22.464 222.36 22.9093 222.483 23.288C222.611 23.6667 222.787 23.984 223.011 24.24C223.235 24.4907 223.502 24.68 223.811 24.808C224.12 24.9307 224.467 24.992 224.851 24.992C225.208 24.992 225.515 24.952 225.771 24.872C226.032 24.7867 226.256 24.696 226.443 24.6C226.63 24.504 226.784 24.416 226.907 24.336C227.035 24.2507 227.144 24.208 227.235 24.208C227.352 24.208 227.443 24.2533 227.507 24.344L227.907 24.864Z" fill="#FB2E86"/>
<path d="M233 18.5L237 22.5L241 18.5" stroke="#FB2E86" stroke-linecap="round" stroke-linejoin="round"/>
<g clip-path="url(#clip0_0_288)">
<g filter="url(#filter0_d_0_288)">
<path d="M1161.71 28.2899L1158 24.6099C1159.44 22.8143 1160.14 20.5352 1159.95 18.2412C1159.76 15.9472 1158.7 13.8127 1156.99 12.2765C1155.27 10.7404 1153.03 9.91941 1150.73 9.98237C1148.43 10.0453 1146.24 10.9875 1144.62 12.615C1142.99 14.2426 1142.05 16.4319 1141.98 18.7328C1141.92 21.0337 1142.74 23.2713 1144.28 24.9854C1145.81 26.6996 1147.95 27.76 1150.24 27.9487C1152.54 28.1374 1154.81 27.44 1156.61 25.9999L1160.29 29.6799C1160.38 29.7736 1160.49 29.848 1160.62 29.8988C1160.74 29.9496 1160.87 29.9757 1161 29.9757C1161.13 29.9757 1161.26 29.9496 1161.38 29.8988C1161.51 29.848 1161.62 29.7736 1161.71 29.6799C1161.89 29.4934 1161.99 29.2442 1161.99 28.9849C1161.99 28.7256 1161.89 28.4764 1161.71 28.2899ZM1151 25.9999C1149.62 25.9999 1148.26 25.5894 1147.11 24.8202C1145.96 24.051 1145.06 22.9578 1144.53 21.6787C1144 20.3996 1143.86 18.9921 1144.13 17.6343C1144.4 16.2764 1145.07 15.0291 1146.05 14.0502C1147.03 13.0712 1148.28 12.4045 1149.63 12.1344C1150.99 11.8643 1152.4 12.0029 1153.68 12.5327C1154.96 13.0626 1156.05 13.9598 1156.82 15.1109C1157.59 16.2621 1158 17.6154 1158 18.9999C1158 20.8564 1157.26 22.6369 1155.95 23.9497C1154.64 25.2624 1152.86 25.9999 1151 25.9999Z" fill="url(#paint0_linear_0_288)"/>
<path d="M1150.75 10.4819C1152.92 10.4225 1155.03 11.1981 1156.65 12.6489C1158.27 14.0996 1159.27 16.1154 1159.45 18.2817C1159.63 20.4483 1158.97 22.6015 1157.61 24.2974L1157.33 24.6479L1157.65 24.9653L1161.35 28.6372H1161.35C1161.44 28.7304 1161.49 28.8552 1161.49 28.9849C1161.49 29.1135 1161.44 29.2366 1161.35 29.3296C1161.31 29.3754 1161.25 29.412 1161.19 29.437C1161.13 29.4623 1161.07 29.4761 1161 29.4761C1160.93 29.476 1160.87 29.4623 1160.81 29.437C1160.75 29.4116 1160.69 29.3744 1160.65 29.3276L1160.64 29.3267L1156.96 25.646L1156.65 25.3296L1156.3 25.6099C1154.6 26.97 1152.45 27.6289 1150.28 27.4507C1148.12 27.2724 1146.1 26.2706 1144.65 24.6519C1143.2 23.033 1142.42 20.9196 1142.48 18.7466C1142.54 16.5735 1143.43 14.5054 1144.97 12.9683C1146.51 11.4311 1148.57 10.5414 1150.75 10.4819ZM1153.87 12.0708C1152.5 11.5033 1150.99 11.3547 1149.54 11.644C1148.08 11.9334 1146.75 12.6479 1145.7 13.6968C1144.65 14.7456 1143.93 16.0818 1143.64 17.5366C1143.35 18.9914 1143.5 20.4993 1144.07 21.8696C1144.64 23.2401 1145.6 24.4117 1146.83 25.2358C1148.07 26.0598 1149.52 26.4994 1151 26.4995C1152.99 26.4995 1154.9 25.7097 1156.3 24.3032C1157.71 22.8967 1158.5 20.9886 1158.5 18.9995C1158.5 17.5164 1158.06 16.0667 1157.24 14.8335C1156.41 13.6001 1155.24 12.6385 1153.87 12.0708Z" stroke="black"/>
</g>
</g>
<defs>
<filter id="filter0_d_0_288" x="1137.98" y="9.979" width="28.0119" height="27.9966" filterUnits="userSpaceOnUse" color-interpolation-filters="sRGB">
<feFlood flood-opacity="0" result="BackgroundImageFix"/>
<feColorMatrix in="SourceAlpha" type="matrix" values="0 0 0 0 0 0 0 0 0 0 0 0 0 0 0 0 0 0 127 0" result="hardAlpha"/>
<feOffset dy="4"/>
<feGaussianBlur stdDeviation="2"/>
<feComposite in2="hardAlpha" operator="out"/>
<feColorMatrix type="matrix" values="0 0 0 0 0 0 0 0 0 0 0 0 0 0 0 0 0 0 0.25 0"/>
<feBlend mode="normal" in2="BackgroundImageFix" result="effect1_dropShadow_0_288"/>
<feBlend mode="normal" in="SourceGraphic" in2="effect1_dropShadow_0_288" result="shape"/>
</filter>
<linearGradient id="paint0_linear_0_288" x1="1141.98" y1="9.979" x2="1165.43" y2="24.376" gradientUnits="userSpaceOnUse">
<stop stop-color="#F3F9FF"/>
<stop offset="1" stop-color="#F1F0FF"/>
</linearGradient>
<clipPath id="clip0_0_288">
<rect width="24" height="24" fill="white" transform="translate(1140 8)"/>
</clipPath>
</defs>
</svg>
